HIERARCHY
ROOT Hips
{
	OFFSET 0.00000 0.00000 0.00000
	CHANNELS 6 Xposition Yposition Zposition Zrotation Yrotation Xrotation 
	JOINT LHipJoint
	{
		OFFSET 0 0 0
		CHANNELS 3 Zrotation Yrotation Xrotation
		JOINT LeftHip
		{
			OFFSET 1.75344 -1.53157 0.77399
			CHANNELS 3 Zrotation Yrotation Xrotation
			JOINT LeftKnee
			{
				OFFSET 2.25415 -6.19323 0.00000
				CHANNELS 3 Zrotation Yrotation Xrotation
				JOINT LeftAnkle
				{
					OFFSET 2.30342 -6.32861 0.00000
					CHANNELS 3 Zrotation Yrotation Xrotation
					JOINT LeftToe
					{
						OFFSET 0.10958 -0.30108 1.49206
						CHANNELS 3 Zrotation Yrotation Xrotation
						End Site
						{
							OFFSET 0.00000 -0.00000 0.77783
						}
					}
				}
			}
		}
	}
	JOINT RHipJoint
	{
		OFFSET 0 0 0
		CHANNELS 3 Zrotation Yrotation Xrotation
		JOINT RightHip
		{
			OFFSET -1.81912 -1.53156 0.77399
			CHANNELS 3 Zrotation Yrotation Xrotation
			JOINT RightKnee
			{
				OFFSET -2.22882 -6.12365 0.00000
				CHANNELS 3 Zrotation Yrotation Xrotation
				JOINT RightAnkle
				{
					OFFSET -2.21943 -6.09785 0.00000
					CHANNELS 3 Zrotation Yrotation Xrotation
					JOINT RightToe
					{
						OFFSET -0.18931 -0.52012 1.59379
						CHANNELS 3 Zrotation Yrotation Xrotation
						End Site
						{
							OFFSET -0.00000 -0.00000 0.84686
						}
					}
				}
			}
		}
	}
	JOINT lowerback
	{
		OFFSET 0 0 0
		CHANNELS 3 Zrotation Yrotation Xrotation
		JOINT Chest
		{
			OFFSET -0.00200 1.66634 -0.14248
			CHANNELS 3 Zrotation Yrotation Xrotation
			JOINT Chest2
			{
				OFFSET -0.00875 1.64542 0.09514
				CHANNELS 3 Zrotation Yrotation Xrotation
				JOINT lowerneck
				{
					OFFSET 0 0 0
					CHANNELS 3 Zrotation Yrotation Xrotation
					JOINT Neck
					{
						OFFSET 0.02257 1.59605 0.00839
						CHANNELS 3 Zrotation Yrotation Xrotation
						JOINT Head
						{
							OFFSET -0.10214 1.57530 -0.23335
							CHANNELS 3 Zrotation Yrotation Xrotation
							End Site
							{
								OFFSET -0.03588 1.60717 -0.08062
							}
						}
					}
				}
				JOINT LeftCollar
				{
					OFFSET 0 0 0
					CHANNELS 3 Zrotation Yrotation Xrotation
					JOINT LeftShoulder
					{
						OFFSET 2.54983 1.10186 0.40078
CHANNELS 3 Zrotation Xrotation Yrotation
						JOINT LeftElbow
						{
OFFSET 0 -4.288400 0.000000
CHANNELS 3 Zrotation Xrotation Yrotation
							JOINT LeftWrist
							{
OFFSET 0 -3.065520 -0.000000
CHANNELS 3 Zrotation Xrotation Yrotation
								JOINT lhand
								{
									OFFSET 0 0 0
CHANNELS 3 Zrotation Xrotation Yrotation
									JOINT LFingers
									{
OFFSET 0 -0.753040 0.000000
CHANNELS 3 Zrotation Xrotation Yrotation
										End Site
										{
OFFSET 0 -0.607120 0.000000
										}
									}
								}
								JOINT LThumb
								{
OFFSET 0 0.000000 0.000000
CHANNELS 3 Zrotation Xrotation Yrotation
									End Site
									{
OFFSET 0 -0.616390 0.616390
									}
								}
							}
						}
					}
				}
				JOINT RightCollar
				{
					OFFSET 0 0 0
					CHANNELS 3 Zrotation Yrotation Xrotation
					JOINT RightShoulder
					{
						OFFSET -2.60909 1.35448 0.21802
CHANNELS 3 Zrotation Xrotation Yrotation
						JOINT RightElbow
						{
OFFSET 0 -4.521720 -0.000000
CHANNELS 3 Zrotation Xrotation Yrotation
							JOINT RightWrist
							{
OFFSET 0 -2.891400 0.000000
CHANNELS 3 Zrotation Xrotation Yrotation
								JOINT rhand
								{
									OFFSET 0 0 0
CHANNELS 3 Zrotation Xrotation Yrotation
									JOINT RFingers
									{
OFFSET 0 -0.680540 0.000000
CHANNELS 3 Zrotation Xrotation Yrotation
										End Site
										{
OFFSET 0 -0.548670 0.000000
										}
									}
								}
								JOINT RThumb
								{
OFFSET 0 0.000000 0.000000
CHANNELS 3 Zrotation Xrotation Yrotation
									End Site
									{
OFFSET 0 -0.557050 0.557050
									}
								}
							}
						}
					}
				}
			}
		}
	}
}
MOTION
Frames: 12
Frame Time: 0.008333333333333333
10.447256 15.685888 -38.341257 -181.310776 -145.099679 185.633394 0.000000 0.000000 0.000000 -23.459946 -10.908307 -1.896534 2.021092 8.909576 25.513105 1.381593 9.176046 -27.228859 1.867216 -8.583645 -24.501479 0.000000 0.000000 0.000000 30.026805 -7.669670 -19.950925 -4.445515 -12.730485 38.368358 0.469311 -28.300874 -37.267179 -3.609814 -11.621813 34.407630 2.154069 0.367969 3.541482 2.718999 0.773257 -4.602751 1.562018 0.337068 -6.797229 6.245474 8.702819 -6.196810 -7.846954 11.742225 6.420534 -2.711980 5.647600 3.758275 0.000000 0.000000 0.000000 5.079511 13.984701 -44.448367 24.088785 -35.257960 7.757699 8.617556 12.364386 31.306059 0.000000 0.000000 0.000000 -7.125000 0.000000 0.000000 -12.987256 -0.910040 -13.542765 0.000000 0.000000 0.000000 -10.979313 16.579338 27.150659 -17.824422 -27.931811 -4.466728 -10.139216 26.712172 53.779037 0.000000 0.000000 0.000000 7.125000 0.000000 0.000000 70.484737 75.234211 -55.543101
10.532319 15.675489 -38.403968 -180.095838 -147.947404 184.929559 0.000000 0.000000 0.000000 -24.460181 -11.541448 -1.241914 1.696035 8.201526 23.328180 1.305731 8.812584 -26.411868 1.973304 -8.808462 -25.199228 0.000000 0.000000 0.000000 28.592589 -8.878365 -23.061060 -5.328821 -13.743827 42.222692 0.121857 -26.749511 -36.875404 -5.011112 -13.395390 40.868873 1.734195 0.297158 3.807156 2.749700 0.660849 -4.450511 1.838479 0.305827 -6.791890 5.154075 8.297726 -6.099326 -7.936917 11.272694 5.923143 -2.622329 5.397462 3.503873 0.000000 0.000000 0.000000 5.229163 14.641998 -42.871882 23.885596 -35.042452 7.641000 10.890423 12.561311 29.395947 0.000000 0.000000 0.000000 -7.125000 0.000000 0.000000 -11.582671 0.665644 -11.688311 0.000000 0.000000 0.000000 -11.998807 16.568030 28.108062 -18.563134 -28.872108 -4.818174 -10.903089 26.441092 54.091881 0.000000 0.000000 0.000000 7.125000 0.000000 0.000000 71.406593 75.595676 -56.805427
10.620482 15.633695 -38.473630 -179.096195 -151.108120 183.900928 0.000000 0.000000 0.000000 -25.846289 -13.522989 0.683474 1.409020 7.507360 21.227747 1.246667 9.632893 -26.588360 2.130788 -9.124643 -26.192252 0.000000 0.000000 0.000000 26.962103 -9.746600 -25.254213 -6.329450 -14.738762 46.287457 0.993766 -26.816246 -31.792341 -5.366807 -13.784969 42.383589 1.824977 0.415722 4.512299 2.265123 0.823863 -4.277573 1.259985 0.370266 -7.008854 5.534976 7.256142 -5.347532 -8.530346 9.863961 5.219749 -2.993495 4.718336 3.126068 0.000000 0.000000 0.000000 6.813174 15.006561 -41.822531 23.386140 -34.508293 7.355861 9.346431 13.089197 29.167934 0.000000 0.000000 0.000000 -7.125000 0.000000 0.000000 -12.459594 1.086270 -12.522784 0.000000 0.000000 0.000000 -11.911736 17.163361 28.120389 -19.807694 -30.409262 -5.433992 -10.652536 25.045948 54.463172 0.000000 0.000000 0.000000 7.125000 0.000000 0.000000 72.911314 75.580418 -58.203469
10.701555 15.552203 -38.558257 -178.479798 -153.067773 183.308249 0.000000 0.000000 0.000000 -26.785062 -14.819102 1.818009 1.227912 7.027611 19.797297 1.413249 9.218019 -27.484979 1.699971 -8.209837 -23.353930 0.000000 0.000000 0.000000 25.123365 -8.048380 -26.226212 -7.312925 -15.588756 50.046330 0.998604 -25.004004 -28.597635 -5.051597 -13.441675 41.045151 1.673918 0.594414 5.298982 2.378407 1.081321 -4.040049 1.429773 0.508473 -7.219750 4.671930 6.590241 -5.309839 -8.447149 8.994868 4.630379 -3.210053 4.300871 3.141016 0.000000 0.000000 0.000000 7.195923 15.392991 -39.293677 23.312594 -34.428863 7.314317 9.249345 13.428165 28.399654 0.000000 0.000000 0.000000 -7.125000 0.000000 0.000000 -12.478999 1.849555 -12.372088 0.000000 0.000000 0.000000 -13.287688 17.092667 29.419451 -21.170318 -32.025935 -6.140339 -10.956867 23.854210 54.054003 0.000000 0.000000 0.000000 7.125000 0.000000 0.000000 71.241775 75.606723 -56.664329
10.756478 15.477276 -38.640833 -178.522294 -155.834446 183.338437 0.000000 0.000000 0.000000 -26.688696 -16.501200 1.718858 1.256362 7.105581 20.028721 1.525872 8.480006 -27.757774 2.009019 -8.883619 -25.432713 0.000000 0.000000 0.000000 23.837712 -5.641747 -26.308069 -7.889094 -16.036986 52.162116 0.309286 -21.545075 -28.162768 -4.215201 -12.431504 37.290915 2.035539 0.727212 5.724909 2.502886 1.314287 -3.975859 1.326612 0.607804 -7.397952 4.360396 5.731208 -4.791892 -8.726419 7.828423 3.739632 -3.330982 3.736001 2.652945 0.000000 0.000000 0.000000 8.043250 15.442156 -37.680994 23.085405 -34.181977 7.186259 10.862546 13.036835 27.260389 0.000000 0.000000 0.000000 -7.125000 0.000000 0.000000 -11.478088 2.770808 -11.140955 0.000000 0.000000 0.000000 -14.177844 17.481116 30.212181 -22.669381 -33.724160 -6.954373 -13.159873 25.197159 55.216863 0.000000 0.000000 0.000000 7.125000 0.000000 0.000000 75.451634 76.642242 -61.806857
10.755722 15.423589 -38.721862 -178.188105 -158.109275 182.984663 0.000000 0.000000 0.000000 -26.501027 -16.410087 0.587352 1.408446 7.506212 21.224073 1.595299 6.330860 -26.869597 1.997313 -8.848717 -25.331108 0.000000 0.000000 0.000000 22.157046 -1.333729 -24.586982 -7.898362 -16.043865 52.195524 -0.119992 -19.506183 -28.499734 -2.560064 -9.945575 28.801410 1.700663 0.919779 6.094667 2.482882 1.548772 -3.725046 1.459978 0.740539 -7.354634 3.772182 5.043820 -3.996438 -8.620566 6.857860 2.409049 -3.251205 3.290192 1.958777 0.000000 0.000000 0.000000 9.020508 14.969001 -35.736976 22.241993 -33.248371 6.718519 12.581999 12.633342 26.811993 0.000000 0.000000 0.000000 -7.125000 0.000000 0.000000 -10.432762 2.988259 -10.044724 0.000000 0.000000 0.000000 -14.600672 17.342444 30.753623 -23.300819 -34.415807 -7.307798 -20.951390 29.569988 54.662507 0.000000 0.000000 0.000000 7.125000 0.000000 0.000000 72.797906 79.602436 -62.438190
10.719618 15.392545 -38.794413 -177.987301 -160.660100 182.877513 0.000000 0.000000 0.000000 -25.879727 -15.898475 -1.184475 1.641301 8.074290 22.940407 1.789919 3.433017 -26.704843 2.900139 -10.530640 -30.713708 0.000000 0.000000 0.000000 20.635751 4.344170 -21.689223 -7.336635 -15.607652 50.134126 -0.959959 -16.054887 -30.347464 -1.566199 -7.819698 22.207994 1.570823 1.009898 6.188962 2.336706 1.650444 -3.657200 1.365062 0.793980 -7.336408 3.013704 4.284007 -3.637152 -7.918765 5.817281 1.860099 -2.917994 2.795229 1.582807 0.000000 0.000000 0.000000 9.908610 14.200186 -32.470126 20.835829 -31.635070 5.964148 13.227649 11.799307 28.228958 0.000000 0.000000 0.000000 -7.125000 0.000000 0.000000 -10.140342 1.496033 -10.032076 0.000000 0.000000 0.000000 -14.201306 16.482464 29.778013 -22.135672 -33.128799 -6.660398 -26.456164 34.024338 53.735568 0.000000 0.000000 0.000000 7.125000 0.000000 0.000000 68.324508 81.721203 -60.366259
10.664449 15.322241 -38.856383 -177.831609 -163.390636 182.058331 0.000000 0.000000 0.000000 -25.597087 -15.921323 -1.917432 1.928800 8.715615 24.910050 1.969607 0.976142 -26.914953 3.280085 -11.133661 -32.733852 0.000000 0.000000 0.000000 19.791767 11.101190 -16.806896 -6.284634 -14.696208 46.109218 -1.118297 -15.167041 -30.512984 -0.194526 -2.794988 7.711324 1.542251 0.980267 6.519673 2.163972 1.599615 -3.350001 1.201012 0.767073 -7.194227 2.208156 3.569837 -3.629140 -6.929993 4.885523 2.229599 -2.466982 2.334786 1.582260 0.000000 0.000000 0.000000 10.328909 14.127184 -28.012265 19.610218 -30.169113 5.334403 14.570192 12.714276 27.368265 0.000000 0.000000 0.000000 -7.125000 0.000000 0.000000 -9.285162 2.159388 -9.049965 0.000000 0.000000 0.000000 -13.349691 15.381720 27.948613 -20.214998 -30.899282 -5.641906 -27.743667 36.740378 54.015457 0.000000 0.000000 0.000000 7.125000 0.000000 0.000000 70.920310 82.295959 -63.420927
10.587321 15.294161 -38.891360 -177.967558 -166.226993 181.503780 0.000000 0.000000 0.000000 -25.205424 -16.864169 -1.966483 2.156885 9.185076 26.376452 2.042187 -0.034691 -27.055963 3.607032 -11.616430 -34.390577 0.000000 0.000000 0.000000 19.896651 17.516395 -11.849412 -5.144736 -13.542701 41.439815 -1.248356 -13.859881 -30.149686 -0.031764 0.983925 -2.706338 1.587699 0.933135 6.167570 2.113071 1.520845 -3.126370 1.137367 0.727773 -6.748536 1.201290 2.781790 -3.200715 -5.729850 3.857917 2.690863 -1.924959 1.833602 1.541473 0.000000 0.000000 0.000000 10.783062 13.543708 -23.345942 18.342586 -28.592752 4.712509 14.292270 15.299988 25.974183 0.000000 0.000000 0.000000 -7.125000 0.000000 0.000000 -9.357848 3.591858 -8.870955 0.000000 0.000000 0.000000 -12.647962 14.751359 25.967339 -18.800806 -29.169783 -4.933650 -19.591720 33.464970 53.651403 0.000000 0.000000 0.000000 7.125000 0.000000 0.000000 67.346487 78.883237 -56.540875
10.525680 15.245637 -38.880556 -178.194568 -169.083927 181.063331 0.000000 0.000000 0.000000 -25.190971 -18.823380 -1.628776 2.442856 9.732961 28.116498 2.161631 0.541840 -28.032903 4.407739 -12.683661 -38.196164 0.000000 0.000000 0.000000 20.464710 21.434092 -7.950161 -4.261841 -12.500068 37.526194 -1.527094 -10.898686 -29.522567 -0.367785 3.894538 -10.780274 2.171515 0.828839 5.845870 1.950918 1.414714 -3.201946 0.657177 0.646455 -6.624412 0.251523 1.747162 -2.503994 -4.626606 2.487404 3.128377 -1.439828 1.161683 1.466345 0.000000 0.000000 0.000000 10.700759 13.977639 -17.699015 17.952058 -28.095498 4.526718 11.909883 20.165902 23.782609 0.000000 0.000000 0.000000 -7.125000 0.000000 0.000000 -10.697170 6.084424 -9.677036 0.000000 0.000000 0.000000 -12.157839 15.021542 26.347049 -17.884092 -28.008459 -4.494641 -18.920163 33.360200 54.783436 0.000000 0.000000 0.000000 7.125000 0.000000 0.000000 73.126060 78.803320 -61.916962
10.435440 15.213079 -38.895092 -178.451165 -172.192052 180.851282 0.000000 0.000000 0.000000 -24.799424 -20.672120 -1.585249 2.685678 10.168001 29.522382 2.259548 0.463393 -28.633538 4.677886 -13.011355 -39.411249 0.000000 0.000000 0.000000 21.556025 21.526934 -5.972487 -3.798390 -11.887082 35.333881 -1.510504 -10.867702 -29.388564 -0.137494 2.385828 -6.573473 1.926101 0.768873 5.649901 2.055058 1.313212 -3.180702 0.917471 0.611407 -6.496947 -0.836894 0.695954 -2.820910 -3.765527 1.114195 3.519992 -1.009435 0.468974 1.589517 0.000000 0.000000 0.000000 10.720156 14.539632 -15.225810 18.757717 -29.116155 4.912577 9.989425 19.600436 22.864963 0.000000 0.000000 0.000000 -7.125000 0.000000 0.000000 -11.857826 7.204098 -10.510645 0.000000 0.000000 0.000000 -12.182874 15.663606 28.605003 -18.126891 -28.319255 -4.609263 -14.582795 31.046418 58.028080 0.000000 0.000000 0.000000 7.125000 0.000000 0.000000 87.771784 77.173049 -74.606122
10.325789 15.227164 -38.895868 -178.579332 -175.046623 180.820000 0.000000 0.000000 0.000000 -24.358985 -22.112561 -1.509092 2.775417 10.322341 30.026875 2.215282 -0.104458 -28.166356 4.630534 -12.954222 -39.199090 0.000000 0.000000 0.000000 22.528091 19.707209 -4.945796 -3.512172 -11.481236 33.920684 -1.474770 -12.549820 -30.492659 -0.023691 0.991426 -2.725192 1.766678 0.984505 4.998108 1.698754 1.547975 -3.188463 0.619404 0.728714 -6.123789 -1.674821 -0.445511 -2.129992 -2.479461 -0.456442 3.035419 -0.493605 -0.288351 1.287239 0.000000 0.000000 0.000000 11.821885 15.238223 -15.881470 19.983558 -30.622388 5.523059 14.547789 12.863058 22.141000 0.000000 0.000000 0.000000 -7.125000 0.000000 0.000000 -8.987747 7.409646 -7.853336 0.000000 0.000000 0.000000 -11.310003 16.738480 30.365189 -18.355982 -28.610558 -4.718492 -15.157953 31.616183 55.165978 0.000000 0.000000 0.000000 7.125000 0.000000 0.000000 75.005341 77.397140 -62.201380
